#!OML:ASF H:\Dans Jumps\Project 1\Capture day 1\Session 1\subject.ASF
:FULLY-SPECIFIED
:DEGREES
242
root 0.664605 15.8699 -15.5485 17.5014 -0.934906 -1.96931
lowerback 13.9457 -0.588882 0.235452
upperback 4.15011 -0.647306 2.21389
thorax -3.41752 -0.32638 2.29183
lowerneck -17.2027 0.754953 -1.44362
upperneck 20.2103 1.70284 -1.15931
head 9.19961 0.548301 0.0596578
rclavicle -1.98785e-016 1.55052e-014
rhumerus -39.8879 -21.2949 -67.7406
rradius 23.616
rwrist 32.0472
rhand -16.7675 -25.7363
rfingers 7.12502
rthumb 9.45968 -55.5039
lclavicle -1.98785e-016 1.55052e-014
lhumerus -36.7964 6.77192 81.9468
lradius 14.0311
lwrist 4.13459
lhand -24.8498 -3.39895
lfingers 7.12502
lthumb 1.6566 26.5744
rfemur -51.4619 -1.48513 21.0283
rtibia 61.1909
rfoot -30.7026 -12.3946
rtoes -0.249765
lfemur -51.4374 6.21454 -20.4055
ltibia 60.5216
lfoot -25.4747 16.7317
ltoes -11.2759
243
root 0.662796 15.8511 -15.5465 17.9262 -0.780868 -1.94788
lowerback 14.1819 -0.62183 0.210817
upperback 4.00625 -0.684985 2.25495
thorax -3.69414 -0.342396 2.36139
lowerneck -17.3906 0.747697 -1.44824
upperneck 20.0588 1.69459 -1.15541
head 9.18133 0.54556 0.0612358
rclavicle -1.49089e-015 -3.37934e-015
rhumerus -39.7324 -21.3941 -67.7366
rradius 23.5134
rwrist 32.1752
rhand -16.718 -25.7306
rfingers 7.12502
rthumb 9.50745 -55.4961
lclavicle -1.49089e-015 -3.37934e-015
lhumerus -36.6011 7.07767 81.8571
lradius 13.904
lwrist 3.7765
lhand -24.7509 -3.47179
lfingers 7.12502
lthumb 1.75214 26.5008
rfemur -52.0825 -1.4396 21.0144
rtibia 61.5354
rfoot -30.8929 -12.6424
rtoes -0.121784
lfemur -52.0741 5.86083 -20.3693
ltibia 60.841
lfoot -25.6464 16.9426
ltoes -11.1663
244
root 0.660442 15.8325 -15.5434 18.3537 -0.627224 -1.93145
lowerback 14.4277 -0.652397 0.187051
upperback 3.85738 -0.719001 2.29863
thorax -3.98146 -0.356252 2.43348
lowerneck -17.5936 0.740364 -1.443
upperneck 19.9254 1.68668 -1.16203
head 9.17228 0.542241 0.0577058
rclavicle 8.15017e-015 -9.54166e-015
rhumerus -39.5503 -21.4751 -67.7535
rradius 23.4101
rwrist 32.3207
rhand -16.6586 -25.7444
rfingers 7.12502
rthumb 9.5647 -55.5073
lclavicle 8.15017e-015 -9.54166e-015
lhumerus -36.38 7.35892 81.7748
lradius 13.7888
lwrist 3.49791
lhand -24.6186 -3.51119
lfingers 7.12502
lthumb 1.87989 26.4603
rfemur -52.699 -1.37082 21.0012
rtibia 61.8719
rfoot -31.0713 -12.8595
rtoes 0.0363907
lfemur -52.7082 5.52116 -20.323
ltibia 61.1584
lfoot -25.8026 17.1622
ltoes -11.0225
245
root 0.657513 15.8137 -15.5391 18.7834 -0.480353 -1.9209
lowerback 14.6847 -0.677342 0.161963
upperback 3.70151 -0.745384 2.3441
thorax -4.28279 -0.365931 2.50784
lowerneck -17.8183 0.732942 -1.43007
upperneck 19.8195 1.67883 -1.17435
head 9.17674 0.538427 0.0510957
rclavicle 1.0635e-014 -1.64991e-014
rhumerus -39.3479 -21.5437 -67.7857
rradius 23.3049
rwrist 32.4762
rhand -16.6084 -25.7717
rfingers 7.12502
rthumb 9.61318 -55.5324
lclavicle 1.0635e-014 -1.64991e-014
lhumerus -36.1324 7.62727 81.6916
lradius 13.6784
lwrist 3.2902
lhand -24.4614 -3.52134
lfingers 7.12502
lthumb 2.03179 26.4487
rfemur -53.3141 -1.27369 20.9877
rtibia 62.2026
rfoot -31.2359 -13.0489
rtoes 0.187824
lfemur -53.341 5.20301 -20.2678
ltibia 61.4767
lfoot -25.9385 17.3973
ltoes -10.8566
246
root 0.653891 15.7948 -15.5334 19.2148 -0.341984 -1.91933
lowerback 14.9536 -0.695838 0.13621
upperback 3.53657 -0.762845 2.3924
thorax -4.6008 -0.370746 2.58496
lowerneck -18.0762 0.725185 -1.41169
upperneck 19.7521 1.67153 -1.19143
head 9.20061 0.534069 0.0422169
rclavicle -1.73937e-014 2.22639e-014
rhumerus -39.1278 -21.6048 -67.826
rradius 23.1909
rwrist 32.6246
rhand -16.5768 -25.7965
rfingers 7.12502
rthumb 9.64364 -55.5558
lclavicle -1.73937e-014 2.22639e-014
lhumerus -35.8588 7.8867 81.6051
lradius 13.5689
lwrist 3.14507
lhand -24.2866 -3.49282
lfingers 7.12502
lthumb 2.20061 26.4756
rfemur -53.928 -1.14628 20.9769
rtibia 62.5305
rfoot -31.389 -13.2255
rtoes 0.307084
lfemur -53.9736 4.91028 -20.2007
ltibia 61.7984
lfoot -26.0521 17.6472
ltoes -10.6744
247
root 0.649472 15.7756 -15.5264 19.6524 -0.212367 -1.92711
lowerback 15.2332 -0.706872 0.109341
upperback 3.3545 -0.770031 2.44233
thorax -4.94362 -0.369887 2.66362
lowerneck -18.3544 0.716666 -1.38758
upperneck 19.7202 1.66268 -1.20889
head 9.24048 0.528812 0.0321824
rclavicle -7.7526e-015 5.56597e-015
rhumerus -38.9039 -21.6461 -67.8776
rradius 23.0789
rwrist 32.7212
rhand -16.5617 -25.8233
rfingers 7.12502
rthumb 9.65824 -55.5819
lclavicle -7.7526e-015 5.56597e-015
lhumerus -35.5682 8.14793 81.5034
lradius 13.4505
lwrist 3.02395
lhand -24.1054 -3.42809
lfingers 7.12502
lthumb 2.3756 26.5384
rfemur -54.5459 -0.989113 20.9683
rtibia 62.8607
rfoot -31.5362 -13.4108
rtoes 0.403821
lfemur -54.6115 4.64493 -20.1222
ltibia 62.1254
lfoot -26.1496 17.9038
ltoes -10.4888
248
root 0.64413 15.7559 -15.518 20.0997 -0.0944666 -1.93888
lowerback 15.5216 -0.709295 0.0694088
upperback 3.15209 -0.767225 2.49524
thorax -5.3137 -0.363228 2.75207
lowerneck -18.6523 0.705531 -1.36868
upperneck 19.7198 1.65067 -1.21785
head 9.29473 0.52214 0.0256089
rclavicle 1.08338e-014 -2.22639e-014
rhumerus -38.6762 -21.6644 -67.9348
rradius 22.9692
rwrist 32.744
rhand -16.5601 -25.8326
rfingers 7.12502
rthumb 9.65977 -55.5911
lclavicle 1.08338e-014 -2.22639e-014
lhumerus -35.2642 8.4286 81.3813
lradius 13.3226
lwrist 2.87913
lhand -23.9328 -3.36248
lfingers 7.12502
lthumb 2.54229 26.6021
rfemur -55.1729 -0.804553 20.9563
rtibia 63.1989
rfoot -31.6785 -13.6321
rtoes 0.491702
lfemur -55.2582 4.40764 -20.0397
ltibia 62.4596
lfoot -26.2393 18.161
ltoes -10.3217
249
root 0.637771 15.7353 -15.5082 20.5617 0.0130313 -1.9502
lowerback 15.8126 -0.704167 0.0106893
upperback 2.92609 -0.756939 2.5511
thorax -5.71112 -0.351712 2.85388
lowerneck -18.963 0.692649 -1.35587
upperneck 19.7418 1.63623 -1.21662
head 9.35892 0.514699 0.0232727
rclavicle 1.0635e-014 -3.37934e-015
rhumerus -38.4451 -21.6608 -67.9969
rradius 22.8638
rwrist 32.6907
rhand -16.5714 -25.8282
rfingers 7.12502
rthumb 9.64888 -55.5872
lclavicle 1.0635e-014 -3.37934e-015
lhumerus -34.9426 8.73387 81.2372
lradius 13.1662
lwrist 2.66671
lhand -23.794 -3.30012
lfingers 7.12502
lthumb 2.67633 26.6628
rfemur -55.8157 -0.599085 20.9379
rtibia 63.5507
rfoot -31.8201 -13.9072
rtoes 0.602509
lfemur -55.9185 4.19352 -19.9577
ltibia 62.8022
lfoot -26.3303 18.414
ltoes -10.1871
250
root 0.630423 15.7136 -15.4968 21.0399 0.112692 -1.95699
lowerback 16.1031 -0.69195 -0.0662693
upperback 2.67449 -0.740146 2.60642
thorax -6.13684 -0.335588 2.96522
lowerneck -19.2689 0.675452 -1.35231
upperneck 19.7681 1.6144 -1.19813
head 9.42346 0.505104 0.0273669
rclavicle 2.78299e-015 -2.18663e-015
rhumerus -38.216 -21.6365 -68.0676
rradius 22.7687
rwrist 32.579
rhand -16.6047 -25.8056
rfingers 7.12502
rthumb 9.61679 -55.5661
lclavicle 2.78299e-015 -2.18663e-015
lhumerus -34.6042 9.06833 81.0633
lradius 12.9762
lwrist 2.33428
lhand -23.699 -3.26236
lfingers 7.12502
lthumb 2.76806 26.6994
rfemur -56.4761 -0.382109 20.9118
rtibia 63.9193
rfoot -31.9593 -14.2452
rtoes 0.75244
lfemur -56.5923 3.99746 -19.8805
ltibia 63.1539
lfoot -26.4324 18.6573
ltoes -10.0727
251
root 0.622286 15.6909 -15.4835 21.5318 0.205596 -1.95142
lowerback 16.3837 -0.675413 -0.1678
upperback 2.40349 -0.72213 2.66103
thorax -6.57909 -0.317195 3.0903
lowerneck -19.5747 0.655622 -1.35728
upperneck 19.7902 1.58863 -1.16821
head 9.48634 0.49446 0.0362416
rclavicle 1.81888e-014 -1.59028e-015
rhumerus -37.9788 -21.5947 -68.1471
rradius 22.6815
rwrist 32.461
rhand -16.6794 -25.7752
rfingers 7.12502
rthumb 9.54467 -55.5391
lclavicle 1.81888e-014 -1.59028e-015
lhumerus -34.2386 9.4733 80.8449
lradius 12.7421
lwrist 1.82119
lhand -23.6566 -3.27336
lfingers 7.12502
lthumb 2.80902 26.6879
rfemur -57.149 -0.166696 20.8727
rtibia 64.3053
rfoot -32.0989 -14.6301
rtoes 0.96817
lfemur -57.2713 3.81539 -19.8185
ltibia 63.5135
lfoot -26.549 18.8945
ltoes -9.96445
252
root 0.613535 15.6672 -15.4677 22.0276 0.294785 -1.93008
lowerback 16.6549 -0.65658 -0.289706
upperback 2.11929 -0.705469 2.71221
thorax -7.03175 -0.297735 3.22431
lowerneck -19.8751 0.635035 -1.3635
upperneck 19.7957 1.56134 -1.13668
head 9.5424 0.483502 0.0455853
rclavicle 1.81888e-014 -1.61016e-014
rhumerus -37.7286 -21.5639 -68.227
rradius 22.5887
rwrist 32.4275
rhand -16.8368 -25.735
rfingers 7.12502
rthumb 9.39282 -55.5057
lclavicle 1.81888e-014 -1.61016e-014
lhumerus -33.8398 9.97641 80.5681
lradius 12.4609
lwrist 1.09318
lhand -23.6679 -3.33939
lfingers 7.12502
lthumb 2.79813 26.622
rfemur -57.8223 0.0389919 20.8193
rtibia 64.7061
rfoot -32.2366 -15.0374
rtoes 1.23866
lfemur -57.942 3.64321 -19.7752
ltibia 63.8803
lfoot -26.6815 19.1258
ltoes -9.84227
253
root 0.604347 15.6423 -15.4494 22.5176 0.380812 -1.88928
lowerback 16.9163 -0.636296 -0.429817
upperback 1.83016 -0.691668 2.75612
thorax -7.48586 -0.277996 3.36208
lowerneck -20.1715 0.613834 -1.36909
upperneck 19.7794 1.53176 -1.10207
head 9.59002 0.47224 0.055479
rclavicle 1.82882e-014 1.03368e-014
rhumerus -37.4604 -21.5406 -68.3181
rradius 22.4984
rwrist 32.5223
rhand -17.0917 -25.6978
rfingers 7.12502
rthumb 9.14687 -55.4794
lclavicle 1.82882e-014 1.03368e-014
lhumerus -33.4032 10.6056 80.2191
lradius 12.1355
lwrist 0.136318
lhand -23.6677 -3.41663
lfingers 7.12502
lthumb 2.7983 26.5448
rfemur -58.4872 0.229081 20.7487
rtibia 65.1193
rfoot -32.3639 -15.4278
rtoes 1.54452
lfemur -58.5938 3.47776 -19.7543
ltibia 64.2543
lfoot -26.8245 19.3521
ltoes -9.69095
254
root 0.594868 15.6161 -15.4284 22.9854 0.464457 -1.83253
lowerback 17.1717 -0.616146 -0.582754
upperback 1.54714 -0.682158 2.79423
thorax -7.93167 -0.258892 3.50233
lowerneck -20.4723 0.595242 -1.36961
upperneck 19.7434 1.50536 -1.07354
head 9.6315 0.462399 0.0628047
rclavicle 4.57205e-015 -1.31198e-014
rhumerus -37.1581 -21.5284 -68.4262
rradius 22.4107
rwrist 32.7561
rhand -17.4398 -25.688
rfingers 7.12502
rthumb 8.81097 -55.4841
lclavicle 4.57205e-015 -1.31198e-014
lhumerus -32.9215 11.3925 79.7926
lradius 11.7684
lwrist -1.0384
lhand -23.6365 -3.52231
lfingers 7.12502
lthumb 2.82837 26.4387
rfemur -59.1258 0.403792 20.6634
rtibia 65.5413
rfoot -32.4726 -15.7659
rtoes 1.83823
lfemur -59.211 3.32136 -19.7524
ltibia 64.6364
lfoot -26.9693 19.5719
ltoes -9.52136
